HIERARCHY
ROOT Hip
{
	OFFSET 0 1.131 0.0052
	CHANNELS 6 Xposition Yposition Zposition Xrotation Yrotation Zrotation
	JOINT Abdomen
	{
		OFFSET 0 -0.047353 -0.05
		CHANNELS 3 Xrotation Zrotation Yrotation
		JOINT Chest
		{
			OFFSET 0 0.132153 0.007439
			CHANNELS 3 Xrotation Zrotation Yrotation
			JOINT Neck
			{
				OFFSET 0 0.3078 0.006161
				CHANNELS 3 Xrotation Zrotation Yrotation
				JOINT Head_comp
				{
					OFFSET 0 0.0884 0.013
					CHANNELS 3 Xrotation Yrotation Zrotation
					End Site
					{
						OFFSET -0 0.156 0.0624
					}
				}
			}
			JOINT Left_Collar
			{
				OFFSET 0.02282 0.250342 0.017193
				CHANNELS 2 Yrotation Zrotation
				JOINT Left_Shoulder
				{
					OFFSET 0.15421 0 0
					CHANNELS 3 Xrotation Yrotation Zrotation
					JOINT Left_Forearm
					{
						OFFSET 0.265212 0 0
						CHANNELS 2 Yrotation Xrotation
						JOINT Left_Hand
						{
							OFFSET 0.27571 0 0
							CHANNELS 2 Zrotation Yrotation
							JOINT L1ProxPhalanx
							{
								OFFSET 0.014142 0.001733 0.014142
								CHANNELS 3 Yrotation Zrotation Xrotation
								JOINT L1MidPhalanx
								{
									OFFSET 0.04 0 0
									CHANNELS 1 Zrotation
									JOINT L1DistPhalanx
									{
										OFFSET 0.035 0 0
										CHANNELS 1 Zrotation
										End Site
										{
											OFFSET 0.029 -0 -0
										}
									}
								}
							}
							JOINT L2ProxPhalanx
							{
								OFFSET 0.0821037 0.001578 0.0219996
								CHANNELS 2 Yrotation Zrotation
								JOINT L2MidPhalanx
								{
									OFFSET 0.04 0 0
									CHANNELS 1 Zrotation
									JOINT L2DistPhalanx
									{
										OFFSET 0.028 0 0
										CHANNELS 1 Zrotation
										End Site
										{
											OFFSET 0.02 -0 -0
										}
									}
								}
							}
							JOINT L3ProxPhalanx
							{
								OFFSET 0.083 0 0
								CHANNELS 2 Yrotation Zrotation
								JOINT L3MidPhalanx
								{
									OFFSET 0.053 0 0
									CHANNELS 1 Zrotation
									JOINT L3DistPhalanx
									{
										OFFSET 0.03 0 0
										CHANNELS 1 Zrotation
										End Site
										{
											OFFSET 0.023 -0 -0
										}
									}
								}
							}
							JOINT L4ProxPhalanx
							{
								OFFSET 0.077274 -0.000761 -0.0207055
								CHANNELS 2 Yrotation Zrotation
								JOINT L4MidPhalanx
								{
									OFFSET 0.05 0 0
									CHANNELS 1 Zrotation
									JOINT L4DistPhalanx
									{
										OFFSET 0.03 0 0
										CHANNELS 1 Zrotation
										End Site
										{
											OFFSET 0.023 -0 -0
										}
									}
								}
							}
							JOINT L5ProxPhalanx
							{
								OFFSET 0.0675499 -0.001644 -0.039
								CHANNELS 2 Yrotation Zrotation
								JOINT L5MidPhalanx
								{
									OFFSET 0.04 0 0
									CHANNELS 1 Zrotation
									JOINT L5DistPhalanx
									{
										OFFSET 0.021 0 0
										CHANNELS 1 Zrotation
										End Site
										{
											OFFSET 0.022 -0 -0
										}
									}
								}
							}
						}
					}
				}
			}
			JOINT Right_Collar
			{
				OFFSET -0.02282 0.250342 0.017193
				CHANNELS 2 Yrotation Zrotation
				JOINT Right_Shoulder
				{
					OFFSET -0.15421 0 0
					CHANNELS 3 Xrotation Yrotation Zrotation
					JOINT Right_Forearm
					{
						OFFSET -0.265212 0 0
						CHANNELS 2 Yrotation Xrotation
						JOINT Right_Hand
						{
							OFFSET -0.27571 3e-006 0
							CHANNELS 2 Zrotation Yrotation
							JOINT R1ProxPhalanx
							{
								OFFSET -0.014142 0.001733 0.014142
								CHANNELS 3 Yrotation Zrotation Xrotation
								JOINT R1MidPhalanx
								{
									OFFSET -0.04 0 0
									CHANNELS 1 Zrotation
									JOINT R1DistPhalanx
									{
										OFFSET -0.035 0 0
										CHANNELS 1 Zrotation
										End Site
										{
											OFFSET -0.029 -0 -0
										}
									}
								}
							}
							JOINT R2ProxPhalanx
							{
								OFFSET -0.0821037 0.001578 0.0219996
								CHANNELS 2 Yrotation Zrotation
								JOINT R2MidPhalanx
								{
									OFFSET -0.04 0 0
									CHANNELS 1 Zrotation
									JOINT R2DistPhalanx
									{
										OFFSET -0.028 0 0
										CHANNELS 1 Zrotation
										End Site
										{
											OFFSET -0.02 -0 -0
										}
									}
								}
							}
							JOINT R3ProxPhalanx
							{
								OFFSET -0.083 0 0
								CHANNELS 2 Yrotation Zrotation
								JOINT R3MidPhalanx
								{
									OFFSET -0.053 0 0
									CHANNELS 1 Zrotation
									JOINT R3DistPhalanx
									{
										OFFSET -0.03 0 0
										CHANNELS 1 Zrotation
										End Site
										{
											OFFSET -0.023 -0 -0
										}
									}
								}
							}
							JOINT R4ProxPhalanx
							{
								OFFSET -0.077274 -0.000761 -0.0207055
								CHANNELS 2 Yrotation Zrotation
								JOINT R4MidPhalanx
								{
									OFFSET -0.05 0 0
									CHANNELS 1 Zrotation
									JOINT R4DistPhalanx
									{
										OFFSET -0.03 0 0
										CHANNELS 1 Zrotation
										End Site
										{
											OFFSET -0.023 -0 -0
										}
									}
								}
							}
							JOINT R5ProxPhalanx
							{
								OFFSET -0.0675499 -0.001644 -0.039
								CHANNELS 2 Yrotation Zrotation
								JOINT R5MidPhalanx
								{
									OFFSET -0.04 0 0
									CHANNELS 1 Zrotation
									JOINT R5DistPhalanx
									{
										OFFSET -0.021 0 0
										CHANNELS 1 Zrotation
										End Site
										{
											OFFSET -0.022 -0 -0
										}
									}
								}
							}
						}
					}
				}
			}
		}
	}
	JOINT Left_Thigh
	{
		OFFSET 0.1118 -0.1612 -0.0442
		CHANNELS 3 Xrotation Zrotation Yrotation
		JOINT Left_Shin
		{
			OFFSET 0 -0.477856 0
			CHANNELS 1 Xrotation
			JOINT Left_Foot
			{
				OFFSET 0 -0.431952 0
				CHANNELS 2 Xrotation Zrotation
				JOINT Left_Toe
				{
					OFFSET 0 -0.0442 0.119
					CHANNELS 1 Xrotation
					End Site
					{
						OFFSET -0 -0 0.07
					}
				}
			}
		}
	}
	JOINT Right_Thigh
	{
		OFFSET -0.1118 -0.1612 -0.0442
		CHANNELS 3 Xrotation Zrotation Yrotation
		JOINT Right_Shin
		{
			OFFSET 0 -0.477856 0
			CHANNELS 1 Xrotation
			JOINT Right_Foot
			{
				OFFSET 0 -0.431952 0
				CHANNELS 2 Xrotation Zrotation
				JOINT Right_Toe
				{
					OFFSET 0 -0.0442 0.119
					CHANNELS 1 Xrotation
					End Site
					{
						OFFSET -0 -0 0.07
					}
				}
			}
		}
	}
}
MOTION
Frames: 14
Frame Time: 0.009975
-0.102529 -0.0600496 0.0433459 -3.90529e-013 2.36001e-008 -5.10953e-006 0 -0 0 0 -0 0 0 -0 0 -0.712234 0.294015 -5.6545e-012 -6.36161 -23.5855 -30.285 -18.7221 -41.0719 -30.0487 1.06736 44.7246 5.49037 -43.2792 -61.0525 116.36 -7.48701 -3.42612 10.0996 -0.680617 -19.9019 -24.5377 9.62861 1.21954 0.900059 -1.62955 5.95166 2.51145 -6.53567 3.24896 7.00303 5.6434 -55.0619 45.321 2.27288 11.5187 11.6384 5.39331 56.5583 77.5117 1.06455 -18.2642 -0.238067 34.5876 37.0232 89.1718 21.5239 22.71 7.04895 15.9765 27.1394 19.4154 -2.25552 16.2706 23.4003 20.7264 -8.00434 21.903 26.6151 15.7317 -7.60077 18.0986 40.969 10.1869 0.262298 -0.58387 -0.00267284 0.0240216 -0.286306 0.583882 0 0.273703 -0.58387 -0.00278907 8.49505e-007 -0.27369 0.583882 0 
-0.102566 -0.0600507 0.0436336 -9.48221e-013 2.52251e-008 -5.10953e-006 0 -0 0 0 -0 0 0 -0 0 -0.712258 0.294128 -5.98443e-012 -6.36161 -23.5855 -30.285 -18.7221 -41.0719 -30.0487 1.06736 44.7246 5.49037 -43.2792 -61.0525 116.36 -7.48701 -3.42612 10.0996 -0.680617 -19.9019 -24.5377 9.62861 1.21954 0.900059 -1.62955 5.95166 2.51145 -6.53567 3.24896 7.00303 5.6434 -55.0619 45.321 2.13507 11.056 13.0347 5.60562 57.128 78.2434 1 -17.1567 -0.223632 34.8353 36.3573 88.0286 21.8723 23.1339 7.49731 16.142 27.2787 19.4317 -2.08889 16.726 24.0811 21.2729 -8.05069 22.5533 27.0281 16.325 -7.61777 18.7367 40.5393 11.652 0.280416 -0.581515 -0.00284594 0.0240216 -0.304423 0.581527 0 0.291821 -0.581514 -0.00296169 8.62311e-007 -0.291807 0.581527 0 
-0.102606 -0.0600518 0.0439192 -1.15767e-012 2.68395e-008 -5.10951e-006 0 -0 0 0 -0 0 0 -0 0 -0.712281 0.294247 -6.31494e-012 -6.36161 -23.5855 -30.285 -18.7221 -41.0719 -30.0487 1.06736 44.7246 5.49037 -43.2792 -61.0525 116.36 -7.48701 -3.42612 10.0996 -0.680617 -19.9019 -24.5377 9.62861 1.21954 0.900059 -1.62955 5.95166 2.51145 -6.53567 3.24896 7.00303 5.6434 -55.0619 45.321 1.99743 10.5938 14.4019 5.84452 57.7061 78.9183 0.935536 -16.0507 -0.209215 35.083 35.6913 86.8854 22.2208 23.5577 7.94566 16.3075 27.418 19.448 -1.92227 17.1815 24.7618 21.8195 -8.09704 23.2035 27.441 16.9184 -7.63477 19.3747 40.1096 13.1171 0.298402 -0.579026 -0.00301552 0.0240216 -0.322408 0.579039 0 0.309807 -0.579025 -0.00313078 8.40967e-007 -0.309792 0.579039 0 
-0.102647 -0.0600529 0.0442023 -1.21211e-012 2.84409e-008 -5.1095e-006 0 -0 0 0 -0 0 0 -0 0 -0.712305 0.294373 -6.64512e-012 -6.36161 -23.5855 -30.285 -18.7221 -41.0719 -30.0487 1.06736 44.7246 5.49037 -43.2792 -61.0525 116.36 -7.48701 -3.42612 10.0996 -0.680617 -19.9019 -24.5377 9.62861 1.21954 0.900059 -1.62955 5.95166 2.51145 -6.53567 3.24896 7.00303 5.6434 -55.0619 45.321 1.86015 10.1329 15.7375 6.10793 58.2921 79.5362 0.871241 -14.9476 -0.194837 35.3307 35.0253 85.7421 22.5692 23.9815 8.39401 16.473 27.5573 19.4643 -1.75564 17.6369 25.4425 22.366 -8.14339 23.8538 27.854 17.5117 -7.65177 20.0128 39.68 14.5823 0.31623 -0.576401 -0.00318121 0.0240216 -0.340236 0.576415 0 0.327635 -0.5764 -0.00329594 1.70755e-006 -0.327621 0.576415 0 
-0.102691 -0.0600541 0.0444824 1.73385e-012 3.0027e-008 -5.10949e-006 0 -0 0 0 -0 0 0 -0 0 -0.712328 0.294505 -6.96729e-012 -6.36161 -23.5855 -30.285 -18.7221 -41.0719 -30.0487 1.06736 44.7246 5.49037 -43.2792 -61.0525 116.36 -7.48701 -3.42612 10.0996 -0.680617 -19.9019 -24.5377 9.62861 1.21954 0.900059 -1.62955 5.95166 2.51145 -6.53567 3.24896 7.00303 5.6434 -55.0619 45.321 1.72347 9.67394 17.0387 6.39346 58.8853 80.0973 0.807223 -13.8492 -0.18052 35.5784 34.3594 84.5989 22.9177 24.4054 8.84236 16.6385 27.6965 19.4806 -1.58901 18.0924 26.1232 22.9125 -8.18974 24.504 28.267 18.1051 -7.66877 20.6508 39.2503 16.0474 0.333875 -0.573637 -0.00334261 0.0240216 -0.35788 0.573652 0 0.34528 -0.573636 -0.00345679 1.70755e-006 -0.345264 0.573652 0 
-0.102737 -0.0600554 0.0447592 -1.62296e-012 3.15953e-008 -5.10948e-006 0 -0 0 0 -0 0 0 -0 0 -0.712352 0.294644 -7.27564e-012 -6.36161 -23.5855 -30.285 -18.7221 -41.0719 -30.0487 1.06736 44.7246 5.49037 -43.2792 -61.0525 116.36 -7.48701 -3.42612 10.0996 -0.680617 -19.9019 -24.5377 9.62861 1.21954 0.900059 -1.62955 5.95166 2.51145 -6.53567 3.24896 7.00303 5.6434 -55.0619 45.321 1.58761 9.21778 18.3028 6.69858 59.4851 80.6019 0.743592 -12.7576 -0.16629 35.8262 33.6934 83.4557 23.2661 24.8292 9.29071 16.804 27.8358 19.4968 -1.42239 18.5479 26.8039 23.4591 -8.23609 25.1543 28.68 18.6984 -7.68577 21.2889 38.8206 17.5125 0.351307 -0.570734 -0.00349934 0.0240216 -0.375311 0.570749 0 0.362712 -0.570733 -0.00361294 1.70755e-006 -0.362696 0.570749 0 
-0.102786 -0.0600567 0.0450322 1.31768e-012 3.31433e-008 -5.10947e-006 0 -0 0 0 -0 0 0 -0 0 -0.712375 0.29479 -7.56327e-012 -6.36161 -23.5855 -30.285 -18.7221 -41.0719 -30.0487 1.06736 44.7246 5.49037 -43.2792 -61.0525 116.36 -7.48701 -3.42612 10.0996 -0.680617 -19.9019 -24.5377 9.62861 1.21954 0.900059 -1.62955 5.95166 2.51145 -6.53567 3.24896 7.00303 5.6434 -55.0619 45.321 1.45285 8.76529 19.527 7.02049 60.0905 81.0505 0.680474 -11.6747 -0.152175 36.0739 33.0275 82.3125 23.6145 25.253 9.73906 16.9695 27.9751 19.5131 -1.25576 19.0033 27.4846 24.0056 -8.28244 25.8045 29.0929 19.2918 -7.70277 21.9269 38.3909 18.9776 0.368496 -0.567692 -0.003651 0.0240216 -0.392499 0.567709 0 0.379901 -0.567691 -0.003764 2.41484e-006 -0.379885 0.567709 0 
-0.102836 -0.060058 0.0453007 -8.78872e-013 3.46679e-008 -5.10946e-006 0 -0 0 0 -0 0 0 -0 0 -0.712398 0.294942 -7.82152e-012 -6.36161 -23.5855 -30.285 -18.7221 -41.0719 -30.0487 1.06736 44.7246 5.49037 -43.2792 -61.0525 116.36 -7.48701 -3.42612 10.0996 -0.680617 -19.9019 -24.5377 9.62861 1.21954 0.900059 -1.62955 5.95166 2.51145 -6.53567 3.24896 7.00303 5.6434 -55.0619 45.321 1.31948 8.31747 20.7086 7.35618 60.7007 81.444 0.618005 -10.6029 -0.138205 36.3216 32.3615 81.1692 23.963 25.6769 10.1874 17.135 28.1144 19.5294 -1.08913 19.4588 28.1653 24.5522 -8.32879 26.4548 29.5059 19.8851 -7.71977 22.5649 37.9612 20.4428 0.385408 -0.564516 -0.00379721 0.0240216 -0.409411 0.564534 0 0.396813 -0.564515 -0.00390958 2.41484e-006 -0.396796 0.564534 0 
-0.102889 -0.0600593 0.0455642 -4.55642e-013 3.61661e-008 -5.10944e-006 0 -0 0 0 -0 0 0 -0 0 -0.712421 0.295101 -8.0406e-012 -6.36161 -23.5855 -30.285 -18.7221 -41.0719 -30.0487 1.06736 44.7246 5.49037 -43.2792 -61.0525 116.36 -7.48701 -3.42612 10.0996 -0.680617 -19.9019 -24.5377 9.62861 1.21954 0.900059 -1.62955 5.95166 2.51145 -6.53567 3.24896 7.00303 5.6434 -55.0619 45.321 1.18783 7.87543 21.845 7.70246 61.3142 81.7834 0.556343 -9.54499 -0.124416 36.5693 31.6956 80.026 24.3114 26.1007 10.6358 17.3005 28.2537 19.5457 -0.922505 19.9142 28.846 25.0987 -8.37514 27.105 29.9189 20.4785 -7.73677 23.203 37.5315 21.9079 0.402006 -0.561211 -0.00393756 0.0240216 -0.426008 0.56123 0 0.413411 -0.561211 -0.00404927 1.70755e-006 -0.413394 0.56123 0 
-0.102943 -0.0600607 0.0458221 -2.49483e-012 3.76343e-008 -5.10943e-006 0 -0 0 0 -0 0 0 -0 0 -0.712443 0.295266 -8.21052e-012 -6.36161 -23.5855 -30.285 -18.7221 -41.0719 -30.0487 1.06736 44.7246 5.49037 -43.2792 -61.0525 116.36 -7.48701 -3.42612 10.0996 -0.680617 -19.9019 -24.5377 9.62861 1.21954 0.900059 -1.62955 5.95166 2.51145 -6.53567 3.24896 7.00303 5.6434 -55.0619 45.321 1.05827 7.44044 22.9332 8.05595 61.9294 82.0701 0.495665 -8.50395 -0.110846 36.817 31.0296 78.8828 24.6599 26.5245 11.0841 17.466 28.393 19.562 -0.755877 20.3697 29.5267 25.6453 -8.42149 27.7553 30.3319 21.0718 -7.75377 23.841 37.1018 23.373 0.418248 -0.557787 -0.00407166 0.0240216 -0.44225 0.557807 0 0.429653 -0.557787 -0.00418269 1.26779e-006 -0.429634 0.557807 0 
-0.102999 -0.0600621 0.0460736 2.98279e-013 3.90685e-008 -5.10942e-006 0 -0 0 0 -0 0 0 -0 0 -0.712465 0.295436 -8.31763e-012 -6.36161 -23.5855 -30.285 -18.7221 -41.0719 -30.0487 1.06736 44.7246 5.49037 -43.2792 -61.0525 116.36 -7.48701 -3.42612 10.0996 -0.680617 -19.9019 -24.5377 9.62861 1.21954 0.900059 -1.62955 5.95166 2.51145 -6.53567 3.24896 7.00303 5.6434 -55.0619 45.321 0.931262 7.01398 23.9706 8.41308 62.5443 82.3058 0.436176 -7.48332 -0.0975424 37.0647 30.3636 77.7395 25.0083 26.9484 11.5325 17.6315 28.5322 19.5783 -0.58925 20.8251 30.2074 26.1918 -8.46784 28.4056 30.7448 21.6651 -7.77076 24.4791 36.6721 24.8381 0.434085 -0.554257 -0.0041991 0.0240216 -0.458086 0.554278 0 0.44549 -0.554256 -0.00430943 0 -0.445469 0.554278 0 
-0.103056 -0.0600635 0.0463177 2.43874e-013 4.04639e-008 -5.1094e-006 0 -0 0 0 -0 0 0 -0 0 -0.712487 0.295612 -8.34802e-012 -6.36161 -23.5855 -30.285 -18.7221 -41.0719 -30.0487 1.06736 44.7246 5.49037 -43.2792 -61.0525 116.36 -7.48701 -3.42612 10.0996 -0.680617 -19.9019 -24.5377 9.62861 1.21954 0.900059 -1.62955 5.95166 2.51145 -6.53567 3.24896 7.00303 5.6434 -55.0619 45.321 0.807302 6.59777 24.9543 8.77009 63.1563 82.4928 0.378117 -6.48722 -0.0845586 37.3124 29.6977 76.5963 25.3567 27.3722 11.9808 17.797 28.6715 19.5946 -0.422623 21.2806 30.8881 26.7383 -8.5142 29.0558 31.1578 22.2585 -7.78776 25.1171 36.2424 26.3033 0.449461 -0.550638 -0.00431946 0.0240216 -0.473462 0.55066 0 0.460866 -0.550637 -0.00442907 8.02547e-007 -0.460846 0.55066 0 
-0.103115 -0.0600648 0.0465535 9.22039e-013 4.18151e-008 -5.10939e-006 0 -0 0 0 -0 0 0 -0 0 -0.712508 0.295792 -8.28587e-012 -6.36161 -23.5855 -30.285 -18.7221 -41.0719 -30.0487 1.06736 44.7246 5.49037 -43.2792 -61.0525 116.36 -7.48701 -3.42612 10.0996 -0.680617 -19.9019 -24.5377 9.62861 1.21954 0.900059 -1.62955 5.95166 2.51145 -6.53567 3.24896 7.00303 5.6434 -55.0619 45.321 0.687006 6.19387 25.881 9.12305 63.762 82.6338 0.321773 -5.52056 -0.0719585 37.5601 29.0317 75.4531 25.7052 27.796 12.4292 17.9625 28.8108 19.6109 -0.255996 21.736 31.5688 27.2849 -8.56055 29.7061 31.5708 22.8518 -7.80476 25.7552 35.8127 27.7684 0.46431 -0.546954 -0.00443233 0.0240216 -0.48831 0.546977 0 0.475715 -0.546954 -0.0045412 1.70755e-006 -0.475695 0.546977 0 
-0.103174 -0.0600662 0.0467797 5.41374e-013 4.31156e-008 -5.10937e-006 0 -0 0 0 -0 0 0 -0 0 -0.712529 0.295976 -8.11251e-012 -6.36161 -23.5855 -30.285 -18.7221 -41.0719 -30.0487 1.06736 44.7246 5.49037 -43.2792 -61.0525 116.36 -7.48701 -3.42612 10.0996 -0.680617 -19.9019 -24.5377 9.62861 1.21954 0.900059 -1.62955 5.95166 2.51145 -6.53567 3.24896 7.00303 5.6434 -55.0619 45.321 0.571111 5.80474 26.7475 9.46783 64.3569 82.732 0.267492 -4.58926 -0.0598194 37.8079 28.3658 74.3098 26.0536 28.2199 12.8775 18.128 28.9501 19.6271 -0.089369 22.1915 32.2496 27.8314 -8.6069 30.3563 31.9838 23.4452 -7.82176 26.3932 35.3831 29.2335 0.478551 -0.543236 -0.00453724 0.0240216 -0.502552 0.54326 0 0.489957 -0.543235 -0.00464537 1.70755e-006 -0.489937 0.54326 0 
